# xmcd CD database file
# Copyright (C) 1993-1998 Ti Kan
#
# Track frame offsets:
#	150
#	8592
#	24997
#	42490
#	66250
#	80085
#	95662
#	102925
#	108907
#	111872
#	121362
#	125262
#	130997
#	143575
#	147340
#	161932
#	170400
#	172957
#	178825
#	184417
#	187602
#	192392
#	202267
#	202925
#	205995
#	215490
#	229985
#	236355
#	240040
#	285412
#	292385
#	306625
#	306925
#
# Disc length: 4343 seconds
#
# Revision: 1
# Processed by: cddbd v1.4b41PL1 Copyright (c) Steve Scherf et al.
# Submitted via: CDValet v3.31 - Copyright (c) 1997 Greg Leichner
#
DISCID=ee10f521
DTITLE=Maclean And Maclean - Suck Their Way To The Top - Locked
DTITLE=Up For Laughs
DYEAR=1900
DGENRE=
TTITLE0=Dolly Parton's Tits
TTITLE1=2
TTITLE2=32
TTITLE3=32
TTITLE4=32
TTITLE5=32
TTITLE6=32
TTITLE7=42
TTITLE8=42
TTITLE9=42
TTITLE10=42
TTITLE11=52
TTITLE12=52
TTITLE13=52
TTITLE14=52
TTITLE15=62
TTITLE16=62
TTITLE17=62
TTITLE18=62
TTITLE19=672
TTITLE20=72
TTITLE21=72
TTITLE22=72
TTITLE23=7
TTITLE24=7
TTITLE25=7
TTITLE26=7
TTITLE27=7
TTITLE28=9
TTITLE29=9
TTITLE30=8
TTITLE31=9
TTITLE32=8
EXTD=
EXTT0=
EXTT1=
EXTT2=
EXTT3=
EXTT4=
EXTT5=
EXTT6=
EXTT7=
EXTT8=
EXTT9=
EXTT10=
EXTT11=
EXTT12=
EXTT13=
EXTT14=
EXTT15=
EXTT16=
EXTT17=
EXTT18=
EXTT19=
EXTT20=
EXTT21=
EXTT22=
EXTT23=
EXTT24=
EXTT25=
EXTT26=
EXTT27=
EXTT28=
EXTT29=
EXTT30=
EXTT31=
EXTT32=
PLAYORDER=
